<!--?xml version="1.0" encoding="UTF-8" standalone="no"?-->
<!--?xml version="1.0" encoding="UTF-8" standalone="no"?-->

<!-- Generator: Adobe Illustrator 16.0.0, SVG Export Plug-In . SVG Version: 6.00 Build 0)  -->

<svg version="1.1" id="Layer_1" x="0px" y="0px" width="100%" height="100%" viewBox="0 0 426.07 514" enable-background="new 0 0 426.07 514" xml:space="preserve" sodipodi:docname="Hamadan.svg" inkscape:version="1.1.1 (3bf5ae0d25, 2021-09-20)" xmlns:inkscape="http://www.inkscape.org/namespaces/inkscape" xmlns:sodipodi="http://sodipodi.sourceforge.net/DTD/sodipodi-0.dtd" xmlns="http://www.w3.org/2000/svg" xmlns:svg="http://www.w3.org/2000/svg"><defs id="defs201">
	
	
	
	
	
	
	
	
	
</defs><sodipodi:namedview id="namedview199" pagecolor="#ffffff" bordercolor="#666666" borderopacity="1.0" inkscape:pageshadow="2" inkscape:pageopacity="0.0" inkscape:pagecheckerboard="0" showgrid="false" inkscape:zoom="1.0116732" inkscape:cx="213.01345" inkscape:cy="257.49422" inkscape:window-width="1366" inkscape:window-height="705" inkscape:window-x="-8" inkscape:window-y="-8" inkscape:window-maximized="1" inkscape:current-layer="Layer_1"></sodipodi:namedview>
<path fill="#DBECCB" stroke="#020202" stroke-width="0.2" stroke-miterlimit="10" d="M312.535,150.409  c-2.046-1.264-4.44-1.207-6.333-2.292c-4.689-2.688-2.816-10.228,0.407-13.208c3.544-3.277,8.393-4.866,12-8.335  c4.703-4.523,11.201-6.722,6.25-13.749c-3.271-4.644-11.255-7.163-6.417-13.073c3.815-4.66,9.405-5.299,14.761-7.927  c3.813-1.871,8.739-5.087,11.747-8.91c-2.607-0.268-5.05-1.118-7.163-2.56c-4.021-2.722-6.421-7.293-6.421-12.229  c0-1.078,0.032-2.152,0.064-3.221c0.244-7.191,0.419-12.861-9.103-19.203c-12.137-8.088-37.385-24.926-45.553-29.006  c-6.172-3.082-24.879-7.496-32.975-9.32c-0.046,2.557-0.046,4.807-0.046,6.521c0,3.785,2.197,6.632,4.538,9.641  c2.936,3.779,6.584,8.488,3.477,14.705c-2.875,5.744-8.763,10.111-14.983,11.122c-0.956,0.163-1.923,0.238-2.879,0.238  c-5.114,0-10.089-2.208-14.261-6.38c-0.146-0.145-0.297-0.268-0.446-0.407c-7.961,4.589-11.853,13.668-15.75,22.755  c-0.813,1.634-4.905,1.634-7.358,4.082c-1.631,3.271-1.631,7.36,0,9.813c8.994,14.715,27.801,20.438,23.713,41.693  c-0.813,4.084,4.906,8.177,9.813,8.177c16.354,2.452,37.609-7.36,45.785,11.444c2.453,6.535,1.635,13.896,8.174,17.17  c4.09,1.631,8.177,0.813,12.263,3.268c7.356,4.904,10.63,17.984,19.602,12.26c4.946-3.597,8.163-9.415,12.23-14.063  c-3.366-0.229-6.138-1.054-9.136-3.991C316.619,153.547,314.825,151.822,312.535,150.409z" id="_x631__x632__x646_" class="area" title="رزن"></path>
<path fill="#FBD1D1" stroke="#020202" stroke-width="0.2" stroke-miterlimit="10" d="M407.553,100.892  c-2.072-1.002-4.439-2.133-7.017-3.339c-9.117-4.301-19.416-9.174-23.971-12.215c-5.899-3.93-13.146-7.472-22.14-3.873  c-3.22,1.285-6.459,1.759-9.476,1.45c-3.008,3.822-7.934,7.039-11.747,8.91c-5.355,2.628-10.945,3.268-14.761,7.927  c-4.838,5.91,3.146,8.429,6.417,13.073c4.951,7.027-1.547,9.226-6.25,13.749c-3.607,3.47-8.456,5.059-12,8.335  c-3.224,2.98-5.097,10.521-0.407,13.208c1.893,1.085,4.287,1.028,6.333,2.292c2.29,1.414,4.084,3.139,6,5.016  c2.998,2.937,5.77,3.762,9.136,3.991c3.328-3.804,7.227-6.826,13.114-7.198c10.629-0.813,20.438,6.543,30.249,3.275  c5.65-2.35,12.345-3.896,17.661-7.105c-0.379-0.666-0.722-1.357-0.975-2.094c-1.395-4.059-0.521-8.48,2.587-13.142  C396.741,123.504,404.546,107.3,407.553,100.892z" id="_x62F__x631__x6AF__x632__x6CC__x646_" class="area" title="درگزین"></path>
<path fill="#e8d0e5" stroke="#020202" stroke-width="0.2" stroke-miterlimit="10" d="m 412.59,163.804 c -0.668,-1.353 -1.965,-2.332 -3.97,-3 -7.549,-2.521 -16.364,-6.17 -19.9,-12.412 -5.315,3.213 -12.025,4.757 -17.66,7.104 -9.812,3.269 -19.62,-4.088 -30.25,-3.274 -13.082,0.823 -16.349,14.715 -25.345,21.26 -8.972,5.721 -12.254,-7.358 -19.602,-12.26 -4.086,-2.453 -8.172,-1.642 -12.262,-3.269 -0.438,-0.229 -0.855,-0.471 -1.238,-0.738 0.18,3.58 0.844,7.179 0.423,10.548 -0.798,8.172 -9.81,8.172 -12.254,14.715 -3.271,9.813 9.811,13.077 17.168,17.983 3.245,2.453 3.245,5.726 3.245,8.993 0.82,4.085 5.727,6.537 8.996,7.36 8.173,2.452 17.169,-3.271 24.525,0 6.538,3.265 14.715,9.813 15.546,17.166 0.502,6.313 2.714,10.9 5.974,14.465 5.242,-5.959 11.818,-10.302 19.86,-10.302 20.252,0 32.331,-5.068 32.331,-13.56 0,-7.754 4.086,-20.187 7.374,-30.17 1.369,-4.18 2.542,-7.793 3.17,-10.216 0.424,-1.678 1.075,-3.603 1.775,-5.647 1.67,-5.009 3.821,-11.25 2.094,-14.746 z" id="_x641__x627__x645__x646__x6CC__x646_" class="area" title="فامنین"></path><path fill="#fdfad6" stroke="#020202" stroke-width="0.2" stroke-miterlimit="10" d="m 174.845,168.578 c 1.632,-0.814 4.084,-0.814 5.72,0 4.088,4.903 4.088,17.983 11.446,14.713 8.174,-4.088 15.532,-13.078 24.526,-9.813 12.262,4.089 13.893,19.621 4.084,30.25 -4.084,4.084 4.904,8.177 9.813,5.724 5.727,-4.088 7.356,-11.446 12.262,-12.261 11.031,-2.398 22.334,-1.707 32.421,-3.854 -3.785,-2.667 -6.286,-5.942 -4.62,-10.863 2.453,-6.543 11.443,-6.543 12.256,-14.716 0.436,-3.375 -0.244,-6.967 -0.425,-10.546 -5.197,-3.55 -4.651,-10.343 -6.935,-16.433 -8.177,-18.802 -29.433,-8.991 -45.785,-11.443 -4.905,0 -10.625,-4.09 -9.813,-8.178 4.089,-21.254 -14.713,-26.979 -23.713,-41.692 -1.63,-2.452 -1.63,-6.537 0,-9.812 2.454,-2.454 6.543,-2.454 7.359,-4.084 3.896,-9.087 7.789,-18.164 15.764,-22.749 -5.58,-5.166 -11.839,-3.271 -19.063,-1.06 -3.825,1.172 -7.774,2.386 -11.643,2.386 -5.716,0 -10.163,-3.384 -14.864,-6.958 -5.353,-4.076 -11.422,-8.686 -20.946,-9.746 C 133.49,25.306 118.725,16.966 118.108,16.617 l -0.607,-0.346 -0.399,-0.574 C 116.884,15.386 114.91,12.563 112.287,8.8 106.693,13.757 89.35,29.181 83.641,34.886 75.183,43.348 42.82,46.935 31.37,46.935 c -0.972,0 -1.692,0.172 -1.88,0.447 -1.369,2.057 2.246,10.643 4.407,15.772 2.455,5.832 4.777,11.352 4.777,15.406 0,5.674 9.448,14.943 15.703,21.07 2.989,2.926 5.564,5.457 7.25,7.563 2.062,2.578 5.127,5.313 8.089,7.966 4.874,4.342 9.898,8.836 11.841,13.69 1.848,4.627 14.199,18.014 21.552,25.363 l 0.921,0.923 v 18.451 c 11.882,1.218 24.218,0.664 34.843,4.793 14.711,5.727 25.338,0.824 35.972,-9.801 z" id="_x6A9__x628__x648__x62F__x631___x622__x647__x646__x6AF_" class="area active" title="کبودر آهنگ"></path><path fill="#d3d3d3" stroke="#030303" stroke-width="0.2" stroke-miterlimit="10" d="m 223.038,200.687 c 0.087,-0.133 0.169,-0.269 0.257,-0.399 -0.077,0.054 -0.152,0.104 -0.225,0.17 -0.007,0.077 -0.025,0.153 -0.032,0.229 z" id="path10" class="area" title=""></path><path fill="#e8d0e5" stroke="#020202" stroke-width="0.2" stroke-miterlimit="10" d="m 87.365,318.182 c 12.264,-3.27 18.805,-10.625 25.341,-20.436 1.641,-1.641 5.725,-0.818 5.725,-2.451 0.815,-4.906 2.452,-8.996 5.724,-12.262 1.636,-2.454 -0.818,-5.725 -1.64,-8.178 -4.907,-7.357 -13.896,-11.442 -17.168,-18.804 -4.905,-10.629 -5.718,-22.072 -9.811,-32.702 -1.345,-2.69 -1.026,-6.483 0.032,-9.565 -0.075,0.004 -0.15,0.014 -0.234,0.014 -0.771,0 -1.636,0.059 -2.687,0.111 -4.822,0.276 -12.898,0.752 -31.075,-1.521 -18.422,-2.3 -29.636,11.13 -31.502,13.566 1.508,1.28 2.555,2.743 2.87,4.692 0.585,3.556 -1.454,7.27 -7.011,12.833 -9.672,9.67 -13.235,25.063 -9.844,31.848 1.865,3.736 2.574,9.771 3.322,16.162 0.9,7.679 2.122,18.191 5.705,19.984 8.466,4.235 14.603,6.115 26.232,8.059 11.047,1.844 21.882,6.711 25.019,8.199 3.506,-3.602 6.694,-7.983 11.002,-9.549 z" id="_x627__x633__x62F__x622__x628__x627__x62F_" class="area" title="اسدآباد"></path><path fill="#fbd1d1" stroke="#020202" stroke-width="0.2" stroke-miterlimit="10" d="m 146.23,277.322 c -0.004,-0.008 -0.004,-0.008 -0.004,-0.012 -1.641,-17.99 17.166,-30.25 31.066,-36.79 4.084,-1.633 4.906,-6.536 6.531,-11.441 0.823,-2.451 3.276,-4.906 5.729,-4.906 13.634,0.681 26.13,-4.329 31.323,-15.969 -1.438,-1.215 -1.889,-2.846 -0.264,-4.47 0.904,-0.976 1.709,-1.998 2.418,-3.041 0.01,-0.079 0.025,-0.149 0.033,-0.229 0.071,-0.066 0.146,-0.118 0.227,-0.171 6.679,-10.284 4.232,-23.143 -6.758,-26.811 -8.996,-3.265 -16.354,5.721 -24.527,9.813 -7.357,3.268 -7.357,-9.813 -11.445,-14.713 -1.64,-0.814 -4.089,-0.814 -5.72,0 -10.636,10.625 -21.261,15.53 -35.974,9.813 -10.625,-4.131 -22.962,-3.577 -34.844,-4.795 v 16.222 c 0,8.863 -1.109,23.66 -8.456,23.976 -1.06,3.082 -1.377,6.874 -0.035,9.565 4.091,10.629 4.907,22.072 9.813,32.701 3.271,7.359 12.261,11.443 17.168,18.805 0.65,1.95 2.333,4.42 2.17,6.584 6.882,1.213 14.424,-1.623 21.549,-4.131 z" id="_x628__x647__x627__x631_" class="area" title="بهار"></path><path fill="#fdfad6" stroke="#020202" stroke-width="0.2" stroke-miterlimit="10" d="m 93.904,381.132 c 8.177,5.726 16.35,3.271 23.706,11.448 2.455,1.636 5.726,1.636 8.179,0.813 6.537,-4.904 15.534,-7.356 20.438,-4.084 4.905,4.084 3.266,19.621 12.261,13.084 7.357,-4.906 14.713,-5.725 22.886,-8.177 4.905,-0.817 4.905,-7.358 8.182,-11.442 1.632,-2.453 6.532,0 7.358,-3.271 0.813,-4.906 2.453,-10.632 0,-15.535 -0.821,-2.455 -4.088,-5.721 -1.64,-7.359 7.237,-7.237 8.59,-15.135 7.364,-23.271 -0.923,-0.574 -1.764,-1.26 -2.459,-2.068 -15.53,-17.992 -29.432,-36.791 -49.868,-49.057 -1.636,-1.637 -3.263,-3.264 -4.084,-4.895 -7.125,2.513 -14.673,5.344 -21.548,4.121 -0.042,0.557 -0.195,1.09 -0.529,1.592 -3.271,3.267 -4.907,7.356 -5.724,12.262 0,1.634 -4.084,0.813 -5.726,2.451 -6.536,9.813 -13.079,17.166 -25.34,20.435 -4.309,1.567 -7.496,5.948 -10.992,9.55 0.511,0.242 0.821,0.396 0.896,0.435 l 1.54,0.776 0.171,1.709 c 0.088,0.857 2.105,21.088 2.105,27.43 0,1.77 -0.858,3.984 -2.209,6.373 3.047,6.803 8.045,12.241 15.033,16.68 z" id="_x62A__x648__x6CC__x633__x631__x6A9__x627__x646_" class="area" title="تویسرکان"></path><path fill="#fbd1d1" stroke="#020202" stroke-width="0.2" stroke-miterlimit="10" d="m 327.911,474.766 c -8.579,-10.719 -20.852,-45.34 -21.368,-46.809 l -10.484,-35.619 c -0.258,-1.029 -4.44,-20.576 4.732,-32.038 3.025,-3.784 4.538,-8.216 6.002,-12.495 0.605,-1.807 1.241,-3.621 1.982,-5.322 -5.898,-3.08 -11.316,-6.885 -14.572,-12.85 -2.453,-4.906 7.357,-8.996 3.271,-10.625 -10.631,-4.906 -24.525,-3.275 -36.789,0.813 -9.812,2.453 -17.166,-4.906 -25.347,-7.358 -12.262,-4.903 -10.625,9.813 -14.714,17.168 -3.507,6.313 -12.419,7.196 -17.98,3.707 1.228,8.138 -0.12,16.033 -7.363,23.271 -2.452,1.641 0.814,4.908 1.641,7.36 2.452,4.903 0.813,10.63 0,15.536 -0.821,3.27 -5.729,0.814 -7.36,3.27 -3.272,4.084 -3.272,10.627 -8.181,11.443 -8.172,2.453 -15.529,3.271 -22.886,8.177 -3.529,2.563 -5.421,1.729 -6.713,-0.479 -2.3,7.554 -2.062,14.654 3.44,18.463 11.444,6.541 22.077,13.082 26.162,27.798 0,2.452 4.088,4.083 4.088,6.52 -0.649,7.813 0.267,14.577 5.198,19.512 4.506,-2 9.703,-2.44 14.533,-2.44 2.755,0 6.021,-0.313 9.479,-0.644 10.014,-0.957 20.362,-1.943 24.408,4.123 2.021,3.03 5.699,7.739 9.254,12.332 3.625,4.64 7.372,9.472 9.521,12.697 3.219,4.778 18.36,8.81 23.543,7.112 2.164,-0.741 5.315,-1.968 8.897,-3.345 6.656,-2.55 14.932,-5.77 20.532,-7.17 5.477,-1.373 15.729,-8.951 18.036,-15.729 0.822,-2.493 0.522,-4.518 -0.962,-6.379 z" id="_x645__x644__x627__x6CC__x631_" class="area" title="ملایر"></path><path fill="#dbeccb" stroke="#020202" stroke-width="0.2" stroke-miterlimit="10" d="m 185.466,454.709 c 0,-2.452 -4.089,-4.082 -4.089,-6.52 -4.084,-14.714 -14.714,-21.257 -26.161,-27.798 -5.502,-3.811 -5.74,-10.907 -3.44,-18.465 -2,-3.412 -2.566,-10.12 -5.549,-12.603 -4.907,-3.271 -13.9,-0.818 -20.438,4.084 -2.454,0.816 -5.725,0.816 -8.18,-0.813 -7.356,-8.179 -15.529,-5.726 -23.706,-11.447 -6.989,-4.438 -11.985,-9.879 -15.03,-16.678 -3.992,7.076 -12.305,15.691 -15.391,18.779 l -16.566,18.64 c -0.471,0.487 -8.73,8.994 -3.825,17.173 5.814,9.686 9.04,13.081 22.349,13.081 16.153,0 25.6,5.01 28.067,14.885 1.938,7.74 5.967,23.86 17.472,31.549 11.452,7.632 36.021,17.286 38.772,18.343 5.591,1.07 20.574,2.736 26.829,-1.666 1.505,-1.084 2.327,-2.363 2.567,-4.088 1.361,-9.523 5.896,-14.438 11.517,-16.932 -4.928,-4.946 -5.849,-11.711 -5.198,-19.524 z" id="_x646__x647__x627__x648__x646__x62F_" class="area" title="نهاوند"></path><path fill="#dbeccb" stroke="#020202" stroke-width="0.2" stroke-miterlimit="10" d="m 319.918,334.096 c 9.073,0 11.474,-10.232 11.474,-15.646 0,-8.13 -2.058,-34.95 -2.077,-35.214 l -0.041,-0.514 0.123,-0.488 c 0.288,-1.227 5.426,-21.148 16.553,-33.79 -3.239,-3.563 -5.479,-8.152 -5.989,-14.465 -0.793,-7.36 -8.971,-13.9 -15.529,-17.166 -7.356,-3.271 -16.354,2.452 -24.524,0 -3.271,-0.819 -8.178,-3.271 -8.995,-7.36 0,-3.271 0,-6.54 -3.265,-8.993 -3.67,-2.445 -8.754,-4.48 -12.53,-7.121 -10.106,2.146 -21.409,1.455 -32.421,3.854 -4.907,0.813 -6.535,8.173 -12.264,12.261 -2.947,1.479 -7.373,0.581 -9.548,-1.254 -5.194,11.637 -17.689,16.648 -31.323,15.969 -2.452,0 -4.905,2.453 -5.729,4.906 -1.63,4.905 -2.452,9.813 -6.532,11.441 -13.9,6.539 -32.706,18.803 -31.066,36.788 0.813,1.635 2.453,3.271 4.084,4.905 20.438,12.261 34.338,31.063 49.87,49.058 4.905,5.719 16.354,5.719 20.434,-1.64 4.088,-7.36 2.452,-22.073 14.713,-17.168 8.183,2.451 15.541,9.813 25.349,7.358 12.262,-4.088 26.162,-5.721 36.787,-0.813 4.082,1.63 -5.725,5.718 -3.271,10.625 3.256,5.964 8.674,9.771 14.573,12.851 2.027,-4.646 4.959,-8.384 11.144,-8.384 z" id="_x647__x645__x62F__x627__x646_" class="area" title="همدان"></path>









<g id="g196" class="area" title="">
	
	
	
	
	
	
	
	
</g>
<text xml:space="preserve" style="font-style:normal;font-weight:normal;font-size:20px;line-height:1.25;font-family:sans-serif;fill:#000000;fill-opacity:1;stroke:none" x="226.3577" y="411.20001" id="text1980" class="area" title=""><tspan sodipodi:role="line" id="tspan1978" x="226.3577" y="411.20001" style="font-style:normal;font-variant:normal;font-weight:normal;font-stretch:normal;font-size:20px;font-family:'B Yekan';-inkscape-font-specification:'B Yekan'">ملایر</tspan></text><text xml:space="preserve" style="font-style:normal;font-weight:normal;font-size:20px;line-height:1.25;font-family:sans-serif;fill:#000000;fill-opacity:1;stroke:none" x="102.61079" y="434.33615" id="text1980-9" class="area" title=""><tspan sodipodi:role="line" id="tspan1978-4" x="102.61079" y="434.33615" style="font-style:normal;font-variant:normal;font-weight:normal;font-stretch:normal;font-size:20px;font-family:'B Yekan';-inkscape-font-specification:'B Yekan'">نهاوند</tspan></text><text xml:space="preserve" style="font-style:normal;font-weight:normal;font-size:20px;line-height:1.25;font-family:sans-serif;fill:#000000;fill-opacity:1;stroke:none" x="102.21932" y="348.16153" id="text1980-9-3" class="area" title=""><tspan sodipodi:role="line" id="tspan1978-4-0" x="102.21932" y="348.16153" style="font-style:normal;font-variant:normal;font-weight:normal;font-stretch:normal;font-size:20px;font-family:'B Yekan';-inkscape-font-specification:'B Yekan'">تویسرکان</tspan></text><text xml:space="preserve" style="font-style:normal;font-weight:normal;font-size:20px;line-height:1.25;font-family:sans-serif;fill:#000000;fill-opacity:1;stroke:none" x="34.667534" y="277.77579" id="text1980-9-3-5" class="area" title=""><tspan sodipodi:role="line" id="tspan1978-4-0-1" x="34.667534" y="277.77579" style="font-style:normal;font-variant:normal;font-weight:normal;font-stretch:normal;font-size:20px;font-family:'B Yekan';-inkscape-font-specification:'B Yekan'">اسدآباد</tspan></text><text xml:space="preserve" style="font-style:normal;font-weight:normal;font-size:20px;line-height:1.25;font-family:sans-serif;fill:#000000;fill-opacity:1;stroke:none" x="226.45215" y="266.87964" id="text1980-9-3-8" class="area" title=""><tspan sodipodi:role="line" id="tspan1978-4-0-9" x="226.45215" y="266.87964" style="font-style:normal;font-variant:normal;font-weight:normal;font-stretch:normal;font-size:20px;font-family:'B Yekan';-inkscape-font-specification:'B Yekan'">همدان</tspan></text><text xml:space="preserve" style="font-style:normal;font-weight:normal;font-size:20px;line-height:1.25;font-family:sans-serif;fill:#000000;fill-opacity:1;stroke:none" x="125.76753" y="224.35271" id="text1980-9-3-81" class="area" title=""><tspan sodipodi:role="line" id="tspan1978-4-0-4" x="125.76753" y="224.35271" style="font-style:normal;font-variant:normal;font-weight:normal;font-stretch:normal;font-size:20px;font-family:'B Yekan';-inkscape-font-specification:'B Yekan'">بهار</tspan></text><text xml:space="preserve" style="font-style:normal;font-weight:normal;font-size:20px;line-height:1.25;font-family:sans-serif;fill:#000000;fill-opacity:1;stroke:none" x="100.17971" y="108.0577" id="text1980-9-3-81-3" class="area" title=""><tspan sodipodi:role="line" id="tspan1978-4-0-4-2" x="100.17971" y="108.0577" style="font-style:normal;font-variant:normal;font-weight:normal;font-stretch:normal;font-size:20px;font-family:'B Yekan';-inkscape-font-specification:'B Yekan'">کبودر آهنگ</tspan></text><text xml:space="preserve" style="font-style:normal;font-weight:normal;font-size:20px;line-height:1.25;font-family:sans-serif;fill:#000000;fill-opacity:1;stroke:none" x="253.46524" y="85.829239" id="text1980-9-3-81-3-3" class="area" title=""><tspan sodipodi:role="line" id="tspan1978-4-0-4-2-1" x="253.46524" y="85.829239" style="font-style:normal;font-variant:normal;font-weight:normal;font-stretch:normal;font-size:20px;font-family:'B Yekan';-inkscape-font-specification:'B Yekan'">رزن</tspan></text><text xml:space="preserve" style="font-style:normal;font-weight:normal;font-size:20px;line-height:1.25;font-family:sans-serif;fill:#000000;fill-opacity:1;stroke:none" x="328.10846" y="196.20703" id="text1980-9-3-81-3-3-8" class="area" title=""><tspan sodipodi:role="line" id="tspan1978-4-0-4-2-1-1" x="328.10846" y="196.20703" style="font-style:normal;font-variant:normal;font-weight:normal;font-stretch:normal;font-size:20px;font-family:'B Yekan';-inkscape-font-specification:'B Yekan'">فامنین</tspan></text><text xml:space="preserve" style="font-style:normal;font-weight:normal;font-size:20px;line-height:1.25;font-family:sans-serif;fill:#000000;fill-opacity:1;stroke:none" x="331.49731" y="125.19673" id="text1980-9-3-81-3-3-8-0" class="area" title=""><tspan sodipodi:role="line" id="tspan1978-4-0-4-2-1-1-6" x="331.49731" y="125.19673" style="font-style:normal;font-variant:normal;font-weight:normal;font-stretch:normal;font-size:20px;font-family:'B Yekan';-inkscape-font-specification:'B Yekan'">درگزین</tspan></text></svg>
