<!--?xml version="1.0" encoding="UTF-8" standalone="no"?-->
<!-- Generator: Adobe Illustrator 16.0.0, SVG Export Plug-In . SVG Version: 6.00 Build 0)  -->

<svg version="1.1" id="Layer_1" x="0px" y="0px" width="100%" height="100%" viewBox="0 0 462.17 525" enable-background="new 0 0 462.17 525" xml:space="preserve" sodipodi:docname="Markazi.svg" inkscape:version="1.1.1 (3bf5ae0d25, 2021-09-20)" xmlns:inkscape="http://www.inkscape.org/namespaces/inkscape" xmlns:sodipodi="http://sodipodi.sourceforge.net/DTD/sodipodi-0.dtd" xmlns="http://www.w3.org/2000/svg" xmlns:svg="http://www.w3.org/2000/svg"><defs id="defs221">
	
	
	
	
	
	
	
	
	
	
	
	
	

		
		
		
		
		
		
		
		
		
		
		
		
	</defs><sodipodi:namedview id="namedview219" pagecolor="#ffffff" bordercolor="#666666" borderopacity="1.0" inkscape:pageshadow="2" inkscape:pageopacity="0.0" inkscape:pagecheckerboard="0" showgrid="false" inkscape:zoom="1.04" inkscape:cx="231.25" inkscape:cy="262.98077" inkscape:window-width="1366" inkscape:window-height="705" inkscape:window-x="-8" inkscape:window-y="-8" inkscape:window-maximized="1" inkscape:current-layer="Layer_1"></sodipodi:namedview>
<path fill="#fdfad6" stroke="#020202" stroke-width="0.2" stroke-miterlimit="10" d="m 152.005,149.806 c 7.23,-4.141 7.23,-12.938 5.175,-20.701 13.975,-8.279 29.998,0.517 40.881,11.903 2.588,2.589 7.232,0 10.869,0.515 1.034,0.517 2.588,0.517 3.621,1.554 8.283,13.973 23.807,13.454 37.777,16.559 7.231,2.07 9.832,9.317 12.937,16.046 0.948,2.654 2.878,4.472 5.261,5.896 l 0.48,-1.389 2.041,0.252 c 0.563,0.071 13.977,1.791 25.963,6.931 7.963,3.416 18.568,6.051 24.475,3.246 2.101,-1.001 3.446,-2.629 4.142,-4.988 4.563,-16.034 20.051,-16.61 33.021,-15.304 6.506,0.646 16.348,1.627 17.978,-0.407 0.306,-0.385 0.661,-1.504 -0.401,-4.706 -2.799,-8.387 -9.34,-28.028 0.608,-37.984 1.778,-1.774 3.993,-3.888 6.394,-6.123 -2.97,-2.326 -5.569,-5.443 -8.164,-8.039 -9.83,-10.35 -26.907,-2.07 -40.877,-5.175 -4.146,-0.519 -5.694,-3.623 -8.801,-6.211 -1.55,-1.035 -2.587,-3.621 -5.174,-4.141 -6.212,-1.039 -11.891,2.59 -17.596,1.035 -5.688,-2.069 -11.383,-5.688 -18.111,-5.688 -2.587,-0.518 -3.107,-5.175 -5.688,-6.729 -7.239,-6.21 -13.979,3.619 -21.229,6.729 -1.55,0.515 -4.138,0.515 -5.158,-0.518 -5.69,-4.143 -7.778,-12.939 -13.454,-15.006 -11.902,-3.624 -25.873,-3.624 -36.223,-13.457 -4.141,-4.139 -10.354,1.554 -14.49,-1.035 -11.902,-6.211 -23.811,-7.243 -36.227,-5.689 -9.658,1.258 -13.865,-6.682 -18.979,-13.59 -0.904,-0.18 -1.758,-0.396 -2.591,-0.668 -2.449,5.231 -8.878,18.613 -14.358,26.827 -1.612,2.422 -2.109,4.439 -1.515,6.18 1.548,4.513 10.688,7.562 13.697,8.562 2.92,0.976 4.983,2.65 6.126,4.982 2.327,4.715 0.214,10.864 -1.475,15.802 -0.518,1.496 -1.004,2.905 -1.319,4.14 -0.533,2.141 -1.517,5.134 -2.657,8.604 -2.23,6.809 -5.247,15.949 -5.659,21.588 3.336,1.042 6.867,0.775 9.548,1.924 6.215,3.097 10.873,12.931 19.152,8.273 z" id="_x633__x627__x648__x647_" class="area" title="ساوه"></path><path fill="#e8d0e5" stroke="#020202" stroke-width="0.2" stroke-miterlimit="10" d="m 437.758,360.257 c -7.078,-5.311 -20.717,-18.941 -24.34,-26.175 l -0.847,-1.73 c -3.567,-7.284 -6.334,-12.058 -12.062,-12.058 -2.419,0 -6.241,-0.247 -10.659,-0.566 -10.604,-0.729 -26.664,-1.83 -32.224,0.389 -8,3.203 -19.936,3.517 -22.407,3.549 -1.851,0.636 -8.218,2.424 -12.611,-0.633 -1.751,-1.211 -3.842,-3.696 -3.842,-8.641 0,-5.268 -3.213,-9.48 -6.613,-13.926 -0.822,-1.073 -1.647,-2.161 -2.437,-3.271 -0.854,0.158 -1.686,0.495 -2.469,1.119 -0.514,1.038 -2.066,1.038 -3.101,1.554 -4.661,4.141 -10.87,0.516 -14.491,7.243 -3.107,5.69 -2.07,10.868 1.555,16.043 0.514,1.037 -0.521,2.588 0,3.624 6.208,7.763 17.592,6.712 24.84,1.034 1.033,-0.517 3.102,-0.517 4.654,0 6.209,3.104 12.42,5.688 19.666,6.729 2.066,0 4.654,2.067 4.654,4.139 2.074,10.886 1.553,20.715 9.314,29.498 2.073,2.069 -1.033,8.796 2.073,11.902 5.177,5.175 10.863,9.832 11.9,16.559 1.037,9.314 -0.518,18.632 6.212,26.909 2.001,2.317 1.633,6.156 -0.125,9.158 6.902,-2.488 16.038,-2.802 25.308,0.678 12.571,4.704 31.038,-3.356 33.847,-10.368 1.475,-3.642 3.192,-12.291 3.192,-32.786 0,-1.527 0.458,-4.021 1.058,-7.189 1.199,-6.465 3.701,-19.977 -0.045,-22.784 z" id="_x62F__x644__x6CC__x62C__x627__x646_" class="area" title="دلیجان"></path><path fill="#e8d0e5" stroke="#020202" stroke-width="0.2" stroke-miterlimit="10" d="m 149.934,374.917 c -7.241,-3.606 -5.691,-11.887 -7.762,-19.147 -1.051,-4.658 -6.729,-7.762 -10.883,-11.903 -1.037,-1.033 -1.037,-3.104 -0.5,-4.138 3.104,-3.624 6.729,-6.729 5.157,-11.386 -1.554,-4.146 -6.712,-4.658 -9.315,-3.104 -4.657,2.587 -7.762,7.763 -12.42,9.315 -7.245,3.104 -10.351,-3.624 -16.057,-6.729 -6.209,-3.104 -14.491,-3.621 -21.721,-5.175 -6.673,-1.85 -13.579,1.857 -16.624,7.521 1.937,4.004 3.871,7.513 5.558,9.618 2.28,2.871 2.838,6.291 1.605,9.936 -2.581,7.654 -12.446,14.59 -18.134,16.005 -3.118,0.771 -7.49,2.357 -11.675,3.947 1.254,3.552 3.855,11.844 2.882,17.61 -0.341,1.916 -0.093,3.678 0.15,5.526 0.5,3.987 1.109,8.497 -4.228,13.833 -1.551,1.547 -3.594,3.173 -5.764,4.897 -2.662,2.116 -8.92,7.095 -8.5,8.699 0.004,0.015 0.493,1.348 6.166,2.349 18.889,3.335 25.552,3.335 33.271,3.335 13.231,0 16.011,6.246 16.011,11.505 0,4.564 4.704,12.527 6.991,15.929 3.01,1.155 15.723,5.468 19.68,-2.459 1.687,-3.364 2.867,-6.923 3.91,-10.043 1.856,-5.583 3.31,-9.998 6.837,-11.591 1.765,-0.783 3.771,-0.718 5.977,0.221 7.373,3.16 12.545,3.16 20.353,3.16 1.472,0 3.142,-0.069 4.882,-0.165 5.204,-0.253 10.537,-0.49 14.258,0.915 3.091,-8.114 8.32,-14.704 16.222,-17.627 0.25,-0.086 0.508,-0.188 0.772,-0.272 -2.146,-10.716 -6.233,-18.697 -13.195,-27.154 -3.555,-4.115 -7.176,-10.323 -13.904,-13.428 z" id="_x634__x627__x632__x646__x62F_" class="area active" title="شازند"></path><path fill="#fdfad6" stroke="#020202" stroke-width="0.2" stroke-miterlimit="10" d="m 153.041,307.124 c 1.033,-2.068 1.033,-5.173 0,-5.692 -7.231,-4.654 -18.632,-5.689 -21.22,-16.041 -1.553,-5.689 -11.901,-8.279 -14.489,-15.009 -2.067,-5.174 0.52,-10.348 3.621,-15.521 1.168,-1.46 0.69,-3.242 -0.226,-4.985 -3.187,-0.675 -6.293,-2.284 -9.088,-4.847 -3.625,-3.619 -8.783,2.071 -13.438,0 -2.069,-1.035 -4.145,-3.619 -6.729,-4.143 -4.145,-1.551 -7.245,3.625 -11.383,4.143 -7.779,1.554 -11.387,-8.279 -16.562,-12.421 -0.261,-0.26 -0.53,-0.505 -0.807,-0.744 -2.088,1.561 -4.662,2.497 -7.707,2.497 -2.949,0 -3.892,1.98 -5.826,7.652 -1.261,3.694 -2.702,7.873 -5.69,11.626 -5.894,7.368 -2.906,21.329 -2.877,21.468 l 8.367,28.486 c 0.06,0.11 5.447,15.354 10.847,26.58 3.028,-5.682 9.948,-9.371 16.624,-7.521 7.231,1.554 15.518,2.071 21.719,5.175 5.691,3.104 8.797,9.833 16.059,6.729 4.657,-1.555 7.763,-6.729 12.42,-9.315 2.433,-1.475 7.129,-1.09 8.986,2.377 1.981,-2.166 3.667,-4.565 4.986,-7.052 2.577,-5.162 9.827,-7.748 12.413,-13.442 z" id="_x62E__x646__x62F__x627__x628_" class="area" title="خنداب"></path><path fill="#dbeccb" stroke="#020202" stroke-width="0.2" stroke-miterlimit="10" d="m 291.213,326.791 c -0.521,-1.054 0.514,-2.601 0,-3.624 -1.758,-2.484 -2.881,-4.986 -3.253,-7.516 -11.317,-2.854 -21.124,-10.461 -31.423,-17.837 -4.14,-3.105 -10.351,0 -15.525,-2.589 -1.033,-0.518 -3.102,-1.035 -4.137,-2.07 -4.658,-10.348 -13.976,-9.313 -22.771,-11.9 -4.54,-1.513 -9.08,-3.856 -13.836,-6.016 -3.095,3.911 -6.776,7.275 -12.039,8.083 -8.28,1.554 -15.522,-3.619 -23.284,0 -5.177,2.07 -12.435,-0.515 -13.457,-6.724 -0.521,-4.659 3.621,-7.245 6.207,-10.871 1.051,-1.551 -0.5,-4.659 -1.033,-4.659 -8.854,-2.329 -16.867,-7.18 -18.375,-16.062 -1.803,1.262 -4.084,2.191 -5.944,3.125 -3.72,1.996 -7.716,2.568 -11.614,1.742 0.916,1.747 1.394,3.529 0.226,4.985 -3.103,5.175 -5.691,10.349 -3.621,15.522 2.588,6.729 12.938,9.317 14.489,15.008 2.588,10.348 13.979,11.387 21.22,16.041 1.051,0.521 1.051,3.624 0,5.692 -2.587,5.689 -9.836,8.287 -12.423,13.452 -1.334,2.469 -3.02,4.885 -4.987,7.044 0.122,0.222 0.229,0.479 0.346,0.734 1.555,4.658 -2.07,7.762 -5.174,11.387 -0.521,1.033 -0.521,3.104 0.5,4.138 4.145,4.146 9.832,7.245 10.883,11.903 2.054,7.242 0.504,15.521 7.762,19.147 6.729,3.104 10.351,9.329 13.978,13.453 6.953,8.457 11.035,16.439 13.182,27.161 8.084,-2.601 17.107,0.751 26.146,-0.771 6.211,-1.551 8.281,-8.278 14.489,-9.829 3.107,-1.037 6.729,1.033 9.316,-0.521 5.69,-3.104 9.832,-8.277 16.044,-12.42 3.302,-1.823 6.826,-4.428 8.642,-8.167 -0.679,-2.745 -0.178,-5.704 2.231,-7.874 5.175,-5.175 13.456,-4.145 20.169,-6.225 10.883,-2.588 15.522,-13.974 16.558,-24.823 0.44,-5.53 0.622,-11.42 1.481,-17.046 -0.342,-0.333 -0.667,-0.691 -0.973,-1.073 z" id="_x627__x631__x627__x6A9_" class="area" title="اراک"></path><path fill="#e8d0e5" stroke="#020202" stroke-width="0.2" stroke-miterlimit="10" d="m 80.075,245.024 c 4.138,-0.516 7.231,-5.69 11.384,-4.144 2.588,0.52 4.657,3.107 6.729,4.144 4.654,2.068 9.828,-3.621 13.437,0 6.229,5.689 13.979,6.729 20.72,3.104 1.86,-0.93 4.142,-1.862 5.944,-3.124 -0.164,-0.98 -0.257,-2.006 -0.257,-3.084 -0.498,-4.658 -6.726,-4.143 -8.778,-7.764 -0.519,-1.039 -0.519,-2.589 0,-3.623 1.032,-1.552 2.054,-3.105 3.604,-3.621 -3.102,-7.764 -1.034,-12.937 6.229,-18.626 1.551,-1.039 0,-4.143 -0.518,-6.213 -1.554,-6.208 7.242,-11.387 7.763,-15.521 1.277,-8.516 1.866,-16.679 4.615,-24.786 -0.633,-0.687 -1.166,-1.698 -1.512,-3.162 -0.865,-2.599 1.53,-5.201 1.116,-8.106 -7.375,2.794 -11.846,-6.054 -17.668,-8.97 -2.688,-1.149 -6.222,-0.887 -9.547,-1.924 -0.039,0.425 -0.059,0.836 -0.059,1.216 0,4.814 -3.029,16.012 -31.182,16.012 -15.379,0 -23.438,27.81 -24.414,31.409 0.243,3.181 1.662,22.106 1.662,28.423 0,5.95 -2.256,11.939 -6.619,15.198 0.274,0.237 0.546,0.485 0.807,0.746 5.155,4.137 8.782,13.97 16.544,12.416 z" id="_x6A9__x645__x6CC__x62C__x627__x646_" class="area" title="کمیجان"></path><path fill="#fbd1d1" stroke="#020202" stroke-width="0.2" stroke-miterlimit="10" d="m 138.551,202.072 c 0.518,2.07 2.066,5.175 0.518,6.213 -7.246,5.69 -9.33,10.868 -6.229,18.626 -1.551,0.516 -2.588,2.071 -3.604,3.621 -0.517,1.037 -0.517,2.589 0,3.623 2.054,3.621 8.282,3.104 8.779,7.764 0,10.868 8.799,16.559 18.632,19.146 0.51,0 2.066,3.108 1.033,4.66 -2.588,3.622 -6.729,6.212 -6.209,10.87 1.034,6.209 8.283,8.795 13.457,6.725 7.763,-3.619 15.005,1.554 23.287,0 5.268,-0.809 8.943,-4.173 12.038,-8.083 -1.745,-0.795 -3.519,-1.567 -5.323,-2.265 -3.613,-2.071 -8.789,-6.729 -6.715,-11.903 0.497,-2.588 4.654,-4.14 5.158,-6.209 0.229,-2.335 0.904,-4.251 1.744,-6.027 -6.979,1.177 -7.939,-7.665 -7.939,-13.638 0,-1.035 -2.055,-1.55 -2.055,-2.589 -1.049,-5.175 6.209,-4.144 8.275,-7.763 0.503,-1.555 -2.066,-3.62 -1.047,-4.659 6.212,-5.173 9.833,-10.349 3.104,-16.557 -0.511,-0.52 -0.511,-2.069 0,-3.108 3.107,-3.62 5.175,-9.833 0.521,-11.898 -8.799,-3.624 -18.111,-4.143 -26.394,-8.797 -6.209,-3.621 -1.037,-9.833 -1.555,-15.521 -0.514,-1.035 -1.043,-2.59 -2.066,-3.106 -5.178,-0.862 -11.791,4.022 -15.051,0.574 -2.759,8.103 -3.338,16.267 -4.614,24.784 -0.503,4.132 -9.298,9.312 -7.745,15.517 z" id="_x641__x631__x627__x647__x627__x646_" class="area" title="فراهان"></path><path fill="#fdfad6" stroke="#020202" stroke-width="0.2" stroke-miterlimit="10" d="m 305.285,285.761 c 0,-11.618 -0.654,-16.012 -7.584,-16.012 -10.604,0 -26.635,0 -34.127,-11.237 -4.098,-6.149 -6.715,-11.869 -7.848,-17.132 -7.695,-9.843 -18.193,-17.305 -29.205,-9.81 -7.762,5.175 -12.937,10.349 -22.766,11.385 -2.588,0 -5.176,4.658 -7.764,5.693 -0.295,0.074 -0.578,0.133 -0.857,0.181 -0.84,1.776 -1.498,3.691 -1.745,6.027 -0.504,2.069 -4.661,3.619 -5.159,6.208 -2.072,5.175 3.103,9.833 6.709,11.903 6.729,2.589 12.957,6.212 19.166,8.278 8.779,2.593 18.111,1.555 22.771,11.901 1.036,1.039 3.104,1.554 4.137,2.07 5.176,2.589 11.403,-0.518 15.524,2.589 10.316,7.369 20.105,14.989 31.424,17.837 -0.401,-2.738 0.068,-5.553 1.697,-8.527 3.621,-6.729 9.83,-3.106 14.491,-7.243 1.033,-0.516 2.587,-0.516 3.102,-1.554 0.782,-0.624 1.616,-0.962 2.469,-1.119 -2.437,-3.439 -4.435,-7.11 -4.435,-11.438 z" id="_x622__x634__x62A__x6CC__x627__x646_" class="area" title="آشتیان"></path><path fill="#fdfad6" stroke="#020202" stroke-width="0.2" stroke-miterlimit="10" d="m 290.179,428.22 c -2.07,-1.555 -3.624,-4.146 -3.624,-6.213 -0.514,-16.558 -14.494,-25.891 -28.994,-31.049 -2.746,-1.104 -5.083,-3.999 -5.84,-7.133 -1.805,3.723 -5.346,6.343 -8.642,8.167 -6.213,4.142 -10.337,9.315 -16.045,12.42 -2.601,1.554 -6.209,-0.501 -9.315,0.521 -6.226,1.551 -8.278,8.279 -14.506,9.83 -9.316,1.554 -18.613,-2.067 -26.896,1.035 -7.899,2.91 -13.135,9.502 -16.226,17.629 1.082,0.407 2.037,0.947 2.802,1.679 1.257,1.192 1.922,2.792 1.922,4.604 0,1.458 -0.147,3.228 -0.313,5.151 -0.6,6.854 -1.336,15.383 3.928,19.88 7.521,6.462 25.148,15.3 25.326,15.379 l 1.106,0.555 0.247,1.214 c 0.025,0.111 2.23,11.12 3.291,14.304 0.287,0.857 0.494,1.962 0.715,3.234 1.123,6.248 2.391,9.63 5.879,9.63 2.943,0 5.734,0.161 8.193,0.288 3.756,0.216 7.302,0.396 8.982,-0.163 2.127,-0.708 6.625,-3.102 9.344,-4.587 -0.096,-0.232 -0.165,-0.395 -0.172,-0.407 l -0.25,-0.575 0.047,-0.636 c 0.072,-0.976 2.041,-23.862 20.576,-27.569 11.548,-2.32 19.877,-7.989 27.961,-13.482 3.246,-2.202 6.594,-4.486 10.039,-6.459 10.399,-5.938 21.935,-5.722 34.18,-5.483 1.719,0.036 3.447,0.063 5.221,0.069 -8.474,-12.415 -26.552,-12.308 -38.936,-21.833 z" id="_x62E__x645__x6CC__x646_" class="area" title="خمین"></path><path fill="#fbd1d1" stroke="#020202" stroke-width="0.2" stroke-miterlimit="10" d="m 374.528,423.562 c -6.729,-8.279 -5.175,-17.611 -6.212,-26.911 -1.053,-6.725 -6.725,-11.383 -11.899,-16.558 -3.107,-3.107 0,-9.832 -2.073,-11.903 -7.763,-8.782 -7.23,-18.611 -9.314,-29.498 0,-2.054 -2.588,-4.138 -4.654,-4.138 -7.246,-1.037 -13.457,-3.624 -19.666,-6.729 -1.555,-0.517 -3.621,-0.517 -4.654,0 -6.887,5.412 -17.513,6.607 -23.879,0.05 -0.893,5.627 -1.057,11.516 -1.48,17.046 -1.034,10.865 -5.688,22.253 -16.559,24.837 -6.729,2.054 -15.012,1.037 -20.17,6.212 -5.174,4.657 -1.55,12.937 3.607,15.007 14.504,5.158 28.465,14.491 28.996,31.049 0,2.054 1.553,4.657 3.623,6.211 12.388,9.527 30.448,9.418 38.912,21.839 0.771,0.011 1.541,0.032 2.317,0.032 14.178,0 28.833,-4.74 33.369,-10.787 2.051,-2.755 5.422,-5.072 9.618,-6.584 1.752,-3.007 2.119,-6.841 0.118,-9.175 z" id="_x645__x62D__x644__x627__x62A_" class="area" title="محلات"></path><path fill="#dbeccb" stroke="#020202" stroke-width="0.2" stroke-miterlimit="10" d="m 149.418,158.606 c 2.069,8.795 10.352,1.55 16.561,2.589 1.051,0.517 1.554,2.071 2.066,3.106 0.521,5.688 -4.654,11.9 1.555,15.521 8.281,4.658 17.595,5.173 26.394,8.797 4.655,2.065 2.587,8.279 -0.521,11.898 -0.5,1.039 -0.5,2.589 0,3.108 6.729,6.208 3.106,11.384 -3.104,16.557 -1.037,1.039 1.552,3.104 1.054,4.66 -2.073,3.619 -9.332,2.587 -8.281,7.762 0,1.039 2.054,1.554 2.054,2.589 0,6.212 1.054,15.521 8.799,13.457 2.587,-1.039 5.175,-5.693 7.763,-5.693 9.83,-1.034 15.004,-6.21 22.767,-11.385 11.012,-7.495 21.509,-0.033 29.205,9.811 -1.07,-5.06 -0.787,-9.691 0.862,-13.86 3.226,-8.067 6.558,-29.565 6.591,-29.785 l 0.103,-0.415 5.243,-15.742 c -2.383,-1.423 -4.296,-3.24 -5.261,-5.896 -3.104,-6.729 -5.691,-13.977 -12.938,-16.046 -13.977,-3.104 -29.493,-2.589 -37.776,-16.559 -1.05,-1.037 -2.601,-1.037 -3.621,-1.554 -3.621,-0.516 -8.281,2.07 -10.869,-0.516 -10.883,-11.387 -26.907,-20.183 -40.881,-11.903 2.054,7.764 2.054,16.561 -5.175,20.7 -0.504,0.283 -0.991,0.509 -1.479,0.69 0.419,2.907 -1.977,5.506 -1.111,8.109 z" id="_x62A__x641__x631__x634_" class="area" title="تفرش"></path><path fill="#fbd1d1" stroke="#020202" stroke-width="0.2" stroke-miterlimit="10" d="m 152.005,57.179 c 12.42,-1.555 24.323,-0.52 36.226,5.689 4.139,2.589 10.334,-3.104 14.491,1.035 10.351,9.833 24.319,9.833 36.224,13.457 5.688,2.066 7.763,10.866 13.453,15.006 1.037,1.035 3.607,1.035 5.158,0.518 7.246,-3.109 13.977,-12.938 21.216,-6.729 2.602,1.554 3.124,6.211 5.694,6.729 6.729,0 12.418,3.618 18.112,5.688 5.688,1.554 11.383,-2.07 17.595,-1.035 2.602,0.516 3.624,3.104 5.175,4.141 3.104,2.589 4.657,5.689 8.8,6.211 13.971,3.104 31.048,-5.175 40.877,5.175 2.595,2.596 5.194,5.709 8.164,8.039 7.506,-6.937 17.145,-15.061 22.918,-17.945 1.191,-0.604 2.455,-1.039 3.72,-1.412 0.069,-0.492 0.215,-0.975 0.575,-1.369 0.912,-1.049 2.513,-1.139 3.568,-0.216 0.043,0.041 0.197,0.165 0.396,0.328 4.711,-1.366 7.202,-2.875 7.202,-8.546 0,-7.449 2.488,-17.147 4.486,-24.94 1.162,-4.51 2.252,-8.771 2.252,-10.452 0,-1.252 0.332,-2.802 0.75,-4.771 0.941,-4.419 2.236,-10.463 -0.346,-13.651 -1.422,-1.756 -4.107,-2.646 -7.985,-2.646 -14.603,0 -26.335,-5.114 -36.704,-9.621 -3.344,-1.457 -6.522,-2.831 -9.69,-4.021 -10.486,-3.931 -20.018,-3.597 -27.654,-3.334 -1.833,0.063 -3.581,0.125 -5.168,0.125 -8.269,0 -41.674,1.666 -42.007,1.682 -1.479,0.25 -42.686,6.758 -56.633,1.527 -12.974,-4.857 -27.602,-6.58 -36.192,-6.58 -9.677,0 -27.447,3.396 -29.498,6.131 -0.144,6.28 -5.906,18.935 -19.027,20.813 l -1.761,0.249 c -8.944,1.292 -16.928,2.421 -23.387,1.142 5.135,6.901 9.342,14.841 19,13.583 z" id="_x632__x631__x646__x62F__x6CC__x647_" class="area" title="زرندیه"></path>
<text xml:space="preserve" style="font-style:normal;font-weight:normal;font-size:16px;line-height:1.25;font-family:sans-serif;fill:#000000;fill-opacity:1;stroke:none" x="231.73077" y="124.99999" id="text1327" class="area" title=""><tspan sodipodi:role="line" id="tspan1325" x="231.73077" y="124.99999" style="font-style:normal;font-variant:normal;font-weight:normal;font-stretch:normal;font-size:16px;font-family:'B Yekan';-inkscape-font-specification:'B Yekan'">ساوه</tspan></text><text xml:space="preserve" style="font-style:normal;font-weight:normal;font-size:16px;line-height:1.25;font-family:sans-serif;fill:#000000;fill-opacity:1;stroke:none" x="330.68616" y="126.70074" id="text1327-0" transform="rotate(28.048301)" class="area" title=""><tspan sodipodi:role="line" id="tspan1325-6" x="330.68616" y="126.70074" style="font-style:normal;font-variant:normal;font-weight:normal;font-stretch:normal;font-size:16px;font-family:'B Yekan';-inkscape-font-specification:'B Yekan'">آشتیان</tspan></text><text xml:space="preserve" style="font-style:normal;font-weight:normal;font-size:16px;line-height:1.25;font-family:sans-serif;fill:#000000;fill-opacity:1;stroke:none" x="190.6241" y="340.12109" id="text1327-5" class="area" title=""><tspan sodipodi:role="line" id="tspan1325-63" x="190.6241" y="340.12109" style="font-style:normal;font-variant:normal;font-weight:normal;font-stretch:normal;font-size:16px;font-family:'B Yekan';-inkscape-font-specification:'B Yekan'">اراک</tspan></text><text xml:space="preserve" style="font-style:normal;font-weight:normal;font-size:16px;line-height:1.25;font-family:sans-serif;fill:#000000;fill-opacity:1;stroke:none" x="210.89333" y="190.19801" id="text1327-7" class="area" title=""><tspan sodipodi:role="line" id="tspan1325-1" x="210.89333" y="190.19801" style="font-style:normal;font-variant:normal;font-weight:normal;font-stretch:normal;font-size:16px;font-family:'B Yekan';-inkscape-font-specification:'B Yekan'">تفرش</tspan></text><text xml:space="preserve" style="font-style:normal;font-weight:normal;font-size:16px;line-height:1.25;font-family:sans-serif;fill:#000000;fill-opacity:1;stroke:none" x="212.35487" y="449.65955" id="text1327-08" class="area" title=""><tspan sodipodi:role="line" id="tspan1325-5" x="212.35487" y="449.65955" style="font-style:normal;font-variant:normal;font-weight:normal;font-stretch:normal;font-size:16px;font-family:'B Yekan';-inkscape-font-specification:'B Yekan'">خمین</tspan></text><text xml:space="preserve" style="font-style:normal;font-weight:normal;font-size:16px;line-height:1.25;font-family:sans-serif;fill:#000000;fill-opacity:1;stroke:none" x="67.470253" y="291.89032" id="text1327-6" class="area" title=""><tspan sodipodi:role="line" id="tspan1325-8" x="67.470253" y="291.89032" style="font-style:normal;font-variant:normal;font-weight:normal;font-stretch:normal;font-size:16px;font-family:'B Yekan';-inkscape-font-specification:'B Yekan'">خنداب</tspan></text><text xml:space="preserve" style="font-style:normal;font-weight:normal;font-size:16px;line-height:1.25;font-family:sans-serif;fill:#000000;fill-opacity:1;stroke:none" x="379.50873" y="377.46725" id="text1327-3" class="area" title=""><tspan sodipodi:role="line" id="tspan1325-3" x="379.50873" y="377.46725" style="font-style:normal;font-variant:normal;font-weight:normal;font-stretch:normal;font-size:16px;font-family:'B Yekan';-inkscape-font-specification:'B Yekan'">دلیجان</tspan></text><text xml:space="preserve" style="font-style:normal;font-weight:normal;font-size:16px;line-height:1.25;font-family:sans-serif;fill:#000000;fill-opacity:1;stroke:none" x="290.70102" y="60.236477" id="text1327-68" class="area" title=""><tspan sodipodi:role="line" id="tspan1325-85" x="290.70102" y="60.236477" style="font-style:normal;font-variant:normal;font-weight:normal;font-stretch:normal;font-size:16px;font-family:'B Yekan';-inkscape-font-specification:'B Yekan'">زرندیه</tspan></text><text xml:space="preserve" style="font-style:normal;font-weight:normal;font-size:16px;line-height:1.25;font-family:sans-serif;fill:#000000;fill-opacity:1;stroke:none" x="82.931793" y="389.15955" id="text1327-66" class="area" title=""><tspan sodipodi:role="line" id="tspan1325-9" x="82.931793" y="389.15955" style="font-style:normal;font-variant:normal;font-weight:normal;font-stretch:normal;font-size:16px;font-family:'B Yekan';-inkscape-font-specification:'B Yekan'">شازند</tspan></text><text xml:space="preserve" style="font-style:normal;font-weight:normal;font-size:16px;line-height:1.25;font-family:sans-serif;fill:#000000;fill-opacity:1;stroke:none" x="141.04718" y="222.42879" id="text1327-1" class="area" title=""><tspan sodipodi:role="line" id="tspan1325-2" x="141.04718" y="222.42879" style="font-style:normal;font-variant:normal;font-weight:normal;font-stretch:normal;font-size:16px;font-family:'B Yekan';-inkscape-font-specification:'B Yekan'">فراهان</tspan></text><text xml:space="preserve" style="font-style:normal;font-weight:normal;font-size:16px;line-height:1.25;font-family:sans-serif;fill:#000000;fill-opacity:1;stroke:none" x="303.27795" y="395.81342" id="text1327-9" class="area" title=""><tspan sodipodi:role="line" id="tspan1325-67" x="303.27795" y="395.81342" style="font-style:normal;font-variant:normal;font-weight:normal;font-stretch:normal;font-size:16px;font-family:'B Yekan';-inkscape-font-specification:'B Yekan'">محلات</tspan></text><text xml:space="preserve" style="font-style:normal;font-weight:normal;font-size:16px;line-height:1.25;font-family:sans-serif;fill:#000000;fill-opacity:1;stroke:none" x="83.816406" y="199.65956" id="text1327-8" class="area" title=""><tspan sodipodi:role="line" id="tspan1325-0" x="83.816406" y="199.65956" style="font-style:normal;font-variant:normal;font-weight:normal;font-stretch:normal;font-size:16px;font-family:'B Yekan';-inkscape-font-specification:'B Yekan'">کمیجان</tspan></text></svg>
