<?xml version="1.0" encoding="UTF-8" standalone="no"?>
<!--?xml version="1.0" encoding="UTF-8" standalone="no"?-->

<!--?xml version="1.0" encoding="UTF-8" standalone="no"?-->

<!--?xml version="1.0" encoding="UTF-8" standalone="no"?-->

<!--?xml version="1.0" encoding="UTF-8" standalone="no"?-->

<!-- Generator: Adobe Illustrator 16.0.0, SVG Export Plug-In . SVG Version: 6.00 Build 0)  -->

<svg
   version="1.1"
   id="Layer_1"
   x="0px"
   y="0px"
   width="100%"
   height="100%"
   viewBox="0 0 385 426"
   enable-background="new 0 0 385 426"
   xml:space="preserve"
   sodipodi:docname="Yazd.svg"
   inkscape:version="1.1.1 (3bf5ae0d25, 2021-09-20)"
   xmlns:inkscape="http://www.inkscape.org/namespaces/inkscape"
   xmlns:sodipodi="http://sodipodi.sourceforge.net/DTD/sodipodi-0.dtd"
   xmlns="http://www.w3.org/2000/svg"
   xmlns:svg="http://www.w3.org/2000/svg"><defs
   id="defs165">
	
	
</defs><sodipodi:namedview
   id="namedview163"
   pagecolor="#ffffff"
   bordercolor="#666666"
   borderopacity="1.0"
   inkscape:pageshadow="2"
   inkscape:pageopacity="0.0"
   inkscape:pagecheckerboard="0"
   showgrid="false"
   inkscape:zoom="2.4413146"
   inkscape:cx="67.791345"
   inkscape:cy="264.81634"
   inkscape:window-width="1366"
   inkscape:window-height="705"
   inkscape:window-x="-8"
   inkscape:window-y="-8"
   inkscape:window-maximized="1"
   inkscape:current-layer="Layer_1"
   inkscape:snap-intersection-paths="true"
   inkscape:snap-smooth-nodes="true"
   inkscape:snap-midpoints="true"
   inkscape:object-paths="true" />
<path
   fill="#dbeccb"
   stroke="#010101"
   stroke-width="0.2"
   stroke-miterlimit="10"
   d="m 104.834,155.196 c 6.01,0.906 11.264,0.449 16.332,-2.927 4.396,-2.928 7.833,-9.642 13.334,-10.59 5.74,-0.989 11.854,1.423 17.666,-0.809 4.372,-1.679 7.207,-5.378 10.069,-8.899 0.384,-0.815 0.747,-1.623 1.004,-2.394 0,-1.344 0.45,-3.135 0,-3.135 -9.419,-5.383 -17.944,3.59 -27.367,5.381 -7.173,1.354 -13.011,-1.793 -19.292,-5.83 -1.793,-1.347 -5.381,-0.898 -6.725,0.447 -4.932,5.832 -12.564,8.524 -17.941,5.381 -1.397,-0.739 -2.857,-1.446 -4.338,-2.069 -0.002,-0.005 -0.004,-0.01 -0.007,-0.015 -6.605,-2.77 -13.692,-3.795 -18.09,2.07 -8.971,12.118 -15.699,24.225 -28.26,32.749 -3.059,2.039 -6.552,2.193 -10.145,1.785 -0.498,4.973 -1.004,9.72 -1.164,11.279 l 17.767,20.996 -1.46,1.668 c 2.436,0.746 4.593,1.674 5.774,2.85 0.197,0.236 0.39,0.478 0.583,0.718 0.557,0.059 1.11,0.11 1.66,0.182 5.382,0.891 10.318,5.381 15.25,3.135 8.525,-4.037 20.639,-11.215 16.15,-21.98 -0.896,-2.244 -3.594,-5.832 -2.69,-8.522 1.72,-3.442 5.811,-6.077 9.447,-5.709 3.384,-6.776 1.776,-17.371 12.443,-15.762 z"
   id="_x645__x6CC__x628__x62F_"
   class="area"
   title="میبد" /><path
   fill="#fdfad4"
   stroke="#010101"
   stroke-width="0.2"
   stroke-miterlimit="10"
   d="m 160.993,141.236 c -1.72,-1.48 -1.289,-3.623 -0.318,-5.928 10e-4,0 0.003,0 0.005,0 0.46,-1.096 1.031,-2.225 1.555,-3.337 -2.862,3.521 -5.697,7.22 -10.069,8.899 -5.811,2.232 -11.926,-0.181 -17.666,0.809 -5.501,0.948 -8.938,7.662 -13.334,10.59 -5.068,3.375 -10.322,3.833 -16.332,2.927 -10.667,-1.609 -9.059,8.986 -12.442,15.76 1.106,0.111 2.171,0.49 3.113,1.221 13.906,13.013 33.195,12.119 48.447,5.841 3.136,-0.896 0,-8.972 2.242,-13.459 5.324,-9.838 17.4,-12.938 24.922,-21.619 -3.36,1.235 -6.741,1.143 -10.123,-1.704 z"
   id="_x627__x634__x6A9__x630__x631_"
   class="area"
   title="اشکذر" />
<path
   fill="#fdfad4"
   stroke="#010101"
   stroke-width="0.2"
   stroke-miterlimit="10"
   d="m 132.35138,376.19846 c 1.43806,1.22311 -0.68954,-0.58647 0,0 2.849,3.564 4.913,12.451 4.913,16.697 0,2.934 3.656,8.139 5.059,9.896 l 0.096,0.135 8.25,13.967 c 6.143,-0.711 17.072,-2.055 19.026,-2.541 2.169,-0.543 8.338,-0.295 12.735,0.146 -1.15,-4.17 -4.324,-15.883 -4.324,-18.27 0,-3.063 -1.342,-36.49 -1.973,-39.656 -0.682,-3.387 -1.914,-5.258 -3.777,-5.727 -1.773,-0.434 -4.159,-3.486 -7.906,-8.42 0,0 -21.91492,11.06518 -30.63899,21.62999 -1.4803,1.79263 1.63414,6.76272 1.25461,8.51559 -0.67657,3.12479 -4.2515,4.35698 -2.71462,3.62742 z"
   id="_x62E__x627__x62A__x645_"
   class="area active"
   title="خاتم"
   sodipodi:nodetypes="ccscccccscccssc" /><path
   fill="#fdfad4"
   stroke="#010101"
   stroke-width="0.2"
   stroke-miterlimit="10"
   d="m 150.68164,265.49591 c -5.837,1.799 -12.119,-1.795 -17.045,0.896 -4.488,2.24 -8.525,5.383 -8.973,10.314 -0.45,7.629 2.685,15.252 0,21.979 -1.617,4.145 -4.525,7.338 -7.696,10.5 2.084,3.059 2.438,6.508 2.438,9.873 0,4.666 0.782,21.955 0.789,22.135 -0.139,1.938 -0.955,11.02 -3.516,13.57 -0.867,0.863 1.486,6.635 4.85,11.928 1.225,0.924 8.154,6.221 10.681,9.387 6.68828,-5.41448 -1.31328,-6.47706 1.73668,-12.06882 2.25965,-4.14282 12.15611,-11.32604 30.36232,-21.70418 -2.373,-3.129 -4.827,-6.359 -6.529,-7.771 -1.614,-1.346 -2.343,-2.662 -2.242,-4.031 0.176,-2.283 2.648,-3.771 5.045,-5.209 2.872,-1.719 12.395,-8.551 14.705,-10.219 l -1.283,-51.367 c -8.075,-0.905 -15.698,-0.903 -23.323,1.788 z"
   id="_x645__x631__x648__x633__x62A_"
   class="area"
   title="مروست"
   sodipodi:nodetypes="cccccsccccsccccccc" />
<path
   fill="#FBD0D1"
   stroke="#010101"
   stroke-width="0.2"
   stroke-miterlimit="10"
   d="M108.06,266.393  c-3.136-8.521-0.892-21.086-10.767-25.568c-4.036-1.793-9.414-1.348-13.9,1.348c-2.693,1.793-7.178,0-9.421-3.137  C65,227.369,60.963,213.904,51.991,203.14c-1.171-1.174-3.334-2.104-5.774-2.85l-10.738,12.271l-0.643-0.102  c-0.1-0.014-10.031-1.479-17.517,2.273c-1.248,0.625-2.614,1.05-4.043,1.349c1.675,2.305,5.175,6.846,9.035,10.151  c2.784,2.386,4.059,5.274,3.585,8.138c-0.424,2.56-2.229,4.766-4.711,5.756c-2.738,1.092-7.604,5.926-9.962,8.451l13.469,16.467  c11.81,6.584,34.769,19.185,38.427,20.401c4.57,1.524,11.231,10.322,12.938,12.649c3.74,0.232,25.059,1.554,27.895,1.554  c2.775,0,4.924,1.927,7.414,4.153c0.891,0.796,1.809,1.617,2.838,2.445c1.156,0.922,2.061,1.91,2.764,2.94  c3.176-3.16,6.086-6.356,7.695-10.498c2.686-6.729-0.449-14.354,0-21.979c0.344-3.772,2.787-6.496,5.916-8.565  C122.523,267.051,111.154,273.906,108.06,266.393z"
   id="_x627__x628__x631__x6A9__x648__x647_"
   class="area"
   title="ابرکوه" />
<path
   fill="#FBD0D1"
   stroke="#010101"
   stroke-width="0.2"
   stroke-miterlimit="10"
   d="M153.367,178.019  c0.896,0,1.801,1.346,1.801,1.795c1.794,3.139-0.898,5.383-0.898,8.074c-0.447,3.594,5.833,4.936,8.074,3.141  c7.18-6.729,13.906-7.629,22.884-5.832c4.269,0.676,9.333,0.672,13.883-0.627c0.195-0.529,0.496-1.068,0.918-1.619  c1.349-2.236,5.386-2.686,6.729-4.928c2.242-3.594,0.448-8.523-2.69-11.215c-1.795-1.795-2.241-4.037-1.344-6.279  c0.894-2.029,2.021-4.064,3.269-6.088c-0.666-2.014,0.766-4.016,0.766-6.029c0-3.137-3.141-3.137-5.383-4.48  c-5.832-4.486-7.625-14.811-15.252-10.768c-4.864,2.977-9.904,7.905-15.003,9.784c-7.519,8.68-19.587,11.779-24.922,21.617  c-2.149,4.303,0.643,11.898-1.89,13.309C146.943,179.207,149.645,178.359,153.367,178.019z"
   id="_x6CC__x632__x62F_"
   class="area"
   title="یزد" />
<path
   fill="#E8D0E5"
   stroke="#010101"
   stroke-width="0.2"
   stroke-miterlimit="10"
   d="M142.602,236.785  c3.139-6.279,10.766-8.074,15.252-13.906c0.449-1.346,0-3.135-0.443-4.486c-3.594-5.379-13.457-7.168-11.215-14.354  c0-0.898,1.348-2.691,1.795-3.141c1.148-5.748,2.635-10.51,6.396-14.014c0.494-2.27,2.343-4.324,0.781-7.07  c0-0.449-0.898-1.795-1.801-1.795c-3.723,0.34-6.424,1.188-9.067-0.15c-0.106,0.061-0.224,0.109-0.353,0.15  c-15.252,6.281-34.541,7.178-48.447-5.832c-4.039-3.139-10.318,0-12.561,4.486c-0.897,2.686,1.794,6.279,2.691,8.523  c4.484,10.768-7.629,17.938-16.15,21.975c-4.934,2.244-9.868-2.244-15.252-3.135c-0.549-0.07-1.104-0.123-1.659-0.182  c8.565,10.645,12.624,23.764,21.397,35.171c2.243,3.136,6.729,4.929,9.421,3.136c4.486-2.687,9.869-3.136,13.901-1.347  c9.873,4.483,7.629,17.047,10.766,25.567c3.096,7.517,14.464,0.66,22.521,1.752c0.963-0.639,1.996-1.223,3.051-1.752  c1.875-1.02,3.933-1.135,6.098-0.987c1.418-2.565,3.168-5.002,4.224-7.533C146.189,250.691,139.461,243.064,142.602,236.785z"
   id="_x62A__x641__x62A_"
   class="area"
   title="تفت" />
<path
   fill="#DBECCB"
   stroke="#010101"
   stroke-width="0.2"
   stroke-miterlimit="10"
   d="M237.254,231.85  c-2.244-6.729-1.354-13.457-3.596-20.186c-4.037-13.008-18.842-14.355-29.605-19.289c-3.103-1.551-6.201-4.441-4.959-7.805  c-4.55,1.299-9.611,1.303-13.883,0.627c-8.973-1.795-15.7-0.891-22.883,5.838c-2.243,1.795-8.522,0.447-8.074-3.139  c0-0.344,0.042-0.676,0.115-1.006c-3.762,3.504-5.252,8.266-6.396,14.014c-0.448,0.449-1.796,2.242-1.796,3.141  c-2.242,7.17,7.628,8.971,11.214,14.354c0.444,1.354,0.894,3.143,0.444,4.486c-4.485,5.836-12.112,7.629-15.252,13.908  c-3.135,6.277,3.594,13.898,1.352,21.082c-1.056,2.531-2.808,4.967-4.224,7.535c3.532,0.244,7.331,1.205,10.954,0.094  c7.623-2.688,15.245-2.688,23.318-1.799l-0.051-2.039l0.791-0.297c0.219-0.082,5.363-2.016,7.355-2.674  c2.146-0.713,8.87-2.715,14.189-3.381c5.104-0.627,15.347,3.635,17.526,4.582c2.965-0.836,21.095-5.975,24.069-7.164  c1.717-0.688,9.002-3.529,15.615-6.105C246.262,243.74,239.948,239.938,237.254,231.85z"
   id="_x645__x647__x631__x6CC__x632_"
   class="area"
   title="مهریز" />
<path
   fill="#FDFAD4"
   stroke="#010101"
   stroke-width="0.2"
   stroke-miterlimit="10"
   d="M317.101,186.093  c-0.896-3.135-2.689-6.729-5.828-7.625c-3.597-1.352-6.729,2.242-10.771,1.346c-0.445-0.449-0.896-1.346-1.799-1.346  c0.447-6.729,4.037-15.701-4.036-18.393c-5.382-1.793-11.216,0.898-15.702-1.344c-6.806-3.404-12.835-12.229-10.65-19.619  c-4.309,2.6-8.475,5.445-13.123,6.607c-11.657,3.59-24.668,0.893-35.889,8.076c-0.896,0.447-2.691-0.447-3.587,0  c-2.692,3.139-7.179,4.486-9.422,1.346c-0.14-0.23-0.239-0.469-0.315-0.697c-1.244,2.021-2.371,4.057-3.271,6.086  c-0.897,2.242-0.45,4.486,1.345,6.279c3.141,2.693,4.934,7.627,2.691,11.215c-1.352,2.244-5.383,2.688-6.729,4.928  c-3.139,4.045,0.446,7.629,4.036,9.422c10.767,4.934,25.57,6.281,29.611,19.289c2.237,6.729,1.349,13.458,3.591,20.187  c2.694,8.088,9.01,11.892,16.229,14.772c6.054-2.358,11.545-4.496,11.656-4.541c0.182-0.06,10.772-3.375,17.973-5.99  c8.406-3.057,26.048-13.438,27.175-19.063c0.711-3.545,2.344-5.592,3.664-7.235c1.287-1.609,2.295-2.875,2.295-5.156  c0-3.221,2.352-5.592,5.265-7.117C319.42,194.226,317.881,190.46,317.101,186.093z"
   id="_x628__x627__x641__x642_"
   class="area"
   title="بافق" />
<path
   fill="#E8D0E5"
   stroke="#010101"
   stroke-width="0.2"
   stroke-miterlimit="10"
   d="M273.141,132.712  c2.689-1.793,5.832-0.449,8.521-2.691c7.178-6.729,14.805-10.317,23.775-13.457c8.521-2.692,17.047-3.137,25.568-4.934  c5.652-1.3,9.623-5.561,14.363-9.083c-1.867-3.06-3.61-6.042-5.054-8.501c-1.267-2.158-2.265-3.863-2.759-4.615  c-2.277-3.403-10.707-11.083-14.724-11.588c-4.652-0.582-26.351-6.699-27.271-6.96l-0.431-0.112l-0.237-0.365  c-1.313-1.969-12.845-19.339-13.438-22.947c-0.447-2.684-4.646-11.062-6.226-14.056L258.361,9.228  c-1.584,0.962-3.137,1.177-4.549,1.177h-9.168c-1.533,2.245-6.043,8.596-8.836,9.715c-2.238,0.891-11.383,7.68-14.711,10.213  l-0.201,0.158l-0.246,0.059c-0.362,0.084-8.928,2.07-13.104,1.23c-1.854-0.361-3.296,0.891-5.487,2.961  c-1.211,1.141-2.455,2.32-3.972,3.231c-0.856,0.515-1.606,0.991-2.28,1.423c-2.457,1.567-4.229,2.709-7.052,2.709h-26.943  c-5,0-8.321,5.961-8.321,9.904c0,5.502-5.314,12.22-12.943,13.069c-4.743,0.528-6.206,1.036-8.419,1.816  c-1.069,0.377-2.281,0.801-4.063,1.313c-0.705,0.204-1.419,0.395-2.122,0.581c-5.031,1.347-8.109,2.326-8.109,5.409  c0,5.395-5.301,10.698-10.699,10.698c-2.189,0-8.354,0.166-14.879,0.353c-7.76,0.217-15.782,0.438-19.195,0.438  c-6.209,0-13.935,0-17.609,2.208c-3.503,2.103-21.258,12.881-25.322,15.345c0.85,2.425,2.913,8.612,2.913,11.378  c0,1.598-0.192,10.068-0.396,19.047c-0.192,8.561-0.396,17.418-0.396,18.989c0,1.607-0.572,7.811-1.159,13.701  c3.6,0.408,7.093,0.254,10.145-1.787c12.565-8.523,19.295-20.635,28.26-32.747c5.384-7.173,14.807-4.037,22.43,0  c5.383,3.141,13.011,0.448,17.945-5.382c1.344-1.351,4.927-1.796,6.728-0.447c6.28,4.036,12.112,7.177,19.289,5.831  c9.414-1.795,17.938-10.768,27.364-5.383c0.449,0,0,1.795,0,3.137c-1.347,4.039-5.382,8.973-2.242,11.663  c8.522,7.178,17.044-3.139,25.127-8.074c7.626-4.038,9.413,6.281,15.25,10.767c2.24,1.344,5.381,1.344,5.381,4.484  c0,2.242-1.795,4.486-0.449,6.729c2.244,3.137,6.73,1.795,9.424-1.352c0.893-0.447,2.689,0.449,3.588,0  c11.215-7.178,24.225-4.484,35.893-8.074c4.648-1.162,8.814-4.01,13.117-6.609C269.018,136.759,270.541,134.552,273.141,132.712z"
   id="_x627__x631__x62F__x6A9__x627__x646_"
   class="area"
   title="اردکان" />
<path
   fill="#DBECCB"
   stroke="#010101"
   stroke-width="0.2"
   stroke-miterlimit="10"
   d="M373.777,141.902  c-2.061-3.572-10.469-17.866-15.816-22.239c-3.523-2.872-8.378-10.217-12.596-17.123c-4.734,3.529-8.705,7.784-14.364,9.082  c-8.523,1.801-17.046,2.243-25.567,4.935c-8.973,3.14-16.599,6.729-23.775,13.458c-2.691,2.242-5.832,0.891-8.521,2.691  c-10.767,7.625-3.137,21.532,5.83,26.018c4.486,2.244,10.324-0.447,15.702,1.346c8.073,2.691,4.483,11.664,4.036,18.393  c0.896,0,1.354,0.891,1.795,1.346c4.043,0.893,7.178-2.691,10.772-1.346c3.136,0.891,4.929,4.479,5.828,7.625  c0.78,4.367,2.319,8.133,4.408,11.42c2.606-1.363,5.657-2.049,7.892-2.049c3.432,0,6.328,2.469,7.574,3.719l4.521-2.266  c2.23-0.934,8.165-3.594,9.668-5.092c1.735-1.734,6.471-3.668,11.053-5.539c1.164-0.479,2.287-0.934,3.288-1.359  c3.427-1.469,3.335-5.854,3.274-9.063c-0.012-0.41-0.02-0.793-0.02-1.152c0-3.365,1.289-13.043,1.349-13.455  c-0.017-0.227-0.008-9.291,0.673-13.334C371.281,144.894,372.82,142.892,373.777,141.902z"
   id="_x628__x647__x627__x628__x627__x62F_"
   class="area"
   title="بهاباد" />










<text
   xml:space="preserve"
   style="font-style:normal;font-weight:normal;font-size:14.6667px;line-height:1.25;font-family:sans-serif;fill:#000000;fill-opacity:1;stroke:none"
   x="188.4231"
   y="92.573059"
   id="text1350"
   class="area"
   title=""><tspan
     sodipodi:role="line"
     id="tspan1348"
     x="188.4231"
     y="92.573059"
     style="font-style:normal;font-variant:normal;font-weight:normal;font-stretch:normal;font-size:14.6667px;font-family:'B Yekan';-inkscape-font-specification:'B Yekan'">اردکان</tspan></text><text
   xml:space="preserve"
   style="font-style:normal;font-weight:normal;font-size:14.6667px;line-height:1.25;font-family:sans-serif;fill:#000000;fill-opacity:1;stroke:none"
   x="314.03876"
   y="156.07506"
   id="text1350-3"
   class="area"
   title=""><tspan
     sodipodi:role="line"
     id="tspan1348-0"
     x="314.03876"
     y="156.07506"
     style="font-style:normal;font-variant:normal;font-weight:normal;font-stretch:normal;font-size:14.6667px;font-family:'B Yekan';-inkscape-font-specification:'B Yekan'">بهاباد</tspan></text><text
   xml:space="preserve"
   style="font-style:normal;font-weight:normal;font-size:14.6667px;line-height:1.25;font-family:sans-serif;fill:#000000;fill-opacity:1;stroke:none"
   x="248.01045"
   y="192.39977"
   id="text1350-3-6"
   class="area"
   title=""><tspan
     sodipodi:role="line"
     id="tspan1348-0-7"
     x="248.01045"
     y="192.39977"
     style="font-style:normal;font-variant:normal;font-weight:normal;font-stretch:normal;font-size:14.6667px;font-family:'B Yekan';-inkscape-font-specification:'B Yekan'">بافق</tspan></text><text
   xml:space="preserve"
   style="font-style:normal;font-weight:normal;font-size:14.6667px;line-height:1.25;font-family:sans-serif;fill:#000000;fill-opacity:1;stroke:none"
   x="175.79764"
   y="226.77533"
   id="text1350-3-6-7"
   class="area"
   title=""><tspan
     sodipodi:role="line"
     id="tspan1348-0-7-1"
     x="175.79764"
     y="226.77533"
     style="font-style:normal;font-variant:normal;font-weight:normal;font-stretch:normal;font-size:14.6667px;font-family:'B Yekan';-inkscape-font-specification:'B Yekan'">مهریز</tspan></text><text
   xml:space="preserve"
   style="font-style:normal;font-weight:normal;font-size:14.6667px;line-height:1.25;font-family:sans-serif;fill:#000000;fill-opacity:1;stroke:none"
   x="146.2083"
   y="383.87582"
   id="text1350-3-6-7-1"
   class="area"
   title=""><tspan
     sodipodi:role="line"
     id="tspan1348-0-7-1-9"
     x="146.2083"
     y="383.87582"
     style="font-style:normal;font-variant:normal;font-weight:normal;font-stretch:normal;font-size:14.6667px;font-family:'B Yekan';-inkscape-font-specification:'B Yekan'">خاتم</tspan></text><text
   xml:space="preserve"
   style="font-style:normal;font-weight:normal;font-size:14.6667px;line-height:1.25;font-family:sans-serif;fill:#000000;fill-opacity:1;stroke:none"
   x="128.64313"
   y="309.6004"
   id="text1350-3-6-7-1-6"
   class="area"
   title=""><tspan
     sodipodi:role="line"
     id="tspan1348-0-7-1-9-6"
     x="128.64313"
     y="309.6004"
     style="font-style:normal;font-variant:normal;font-weight:normal;font-stretch:normal;font-size:14.6667px;font-family:'B Yekan';-inkscape-font-specification:'B Yekan'">مروست</tspan></text><text
   xml:space="preserve"
   style="font-style:normal;font-weight:normal;font-size:14.6667px;line-height:1.25;font-family:sans-serif;fill:#000000;fill-opacity:1;stroke:none"
   x="99.705307"
   y="219.30611"
   id="text1350-3-6-5"
   class="area"
   title=""><tspan
     sodipodi:role="line"
     id="tspan1348-0-7-5"
     x="99.705307"
     y="219.30611"
     style="font-style:normal;font-variant:normal;font-weight:normal;font-stretch:normal;font-size:14.6667px;font-family:'B Yekan';-inkscape-font-specification:'B Yekan'">تفت</tspan></text><text
   xml:space="preserve"
   style="font-style:normal;font-weight:normal;font-size:14.6667px;line-height:1.25;font-family:sans-serif;fill:#000000;fill-opacity:1;stroke:none"
   x="52.691536"
   y="172.87581"
   id="text1350-3-6-5-1"
   class="area"
   title=""><tspan
     sodipodi:role="line"
     id="tspan1348-0-7-5-2"
     x="52.691536"
     y="172.87581"
     style="font-style:normal;font-variant:normal;font-weight:normal;font-stretch:normal;font-size:14.6667px;font-family:'B Yekan';-inkscape-font-specification:'B Yekan'">میبد</tspan></text><text
   xml:space="preserve"
   style="font-style:normal;font-weight:normal;font-size:14.6667px;line-height:1.25;font-family:sans-serif;fill:#000000;fill-opacity:1;stroke:none"
   x="170.9137"
   y="162.24219"
   id="text1350-3-6-5-3"
   class="area"
   title=""><tspan
     sodipodi:role="line"
     id="tspan1348-0-7-5-8"
     x="170.9137"
     y="162.24219"
     style="font-style:normal;font-variant:normal;font-weight:normal;font-stretch:normal;font-size:14.6667px;font-family:'B Yekan';-inkscape-font-specification:'B Yekan'">یزد</tspan></text><text
   xml:space="preserve"
   style="font-style:normal;font-weight:normal;font-size:12px;line-height:1.25;font-family:sans-serif;fill:#000000;fill-opacity:1;stroke:none"
   x="107.20601"
   y="169.61528"
   id="text1350-3-6-5-7"
   class="area"
   title=""><tspan
     sodipodi:role="line"
     id="tspan1348-0-7-5-3"
     x="107.20601"
     y="169.61528"
     style="font-style:normal;font-variant:normal;font-weight:normal;font-stretch:normal;font-size:12px;font-family:'B Yekan';-inkscape-font-specification:'B Yekan'">اشکذر</tspan></text><text
   xml:space="preserve"
   style="font-style:normal;font-weight:normal;font-size:14.6667px;line-height:1.25;font-family:sans-serif;fill:#000000;fill-opacity:1;stroke:none"
   x="53.56237"
   y="265.19272"
   id="text1350-3-6-7-1-3"
   class="area"
   title=""><tspan
     sodipodi:role="line"
     id="tspan1348-0-7-1-9-9"
     x="53.56237"
     y="265.19272"
     style="font-style:normal;font-variant:normal;font-weight:normal;font-stretch:normal;font-size:14.6667px;font-family:'B Yekan';-inkscape-font-specification:'B Yekan'">ابرکوه</tspan></text></svg>
